<?xml version="1.0" encoding="UTF-8"?>
<svg id="Calque_2" data-name="Calque 2" xmlns="http://www.w3.org/2000/svg" viewBox="0 0 263.71 151.22">
  <defs>
    <style>
      .cls-1 {
        fill: #1d1d1b;
      }
    </style>
  </defs>
  <g id="Calque_1-2" data-name="Calque 1">
    <path class="cls-1" d="M0,121.58c0-11.04,6.15-17.5,11.51-21.13h0c-5.2,3.78-9.62,10.56-9.62,21.13,0,15.45,11.83,26.96,29.01,26.96,18.45,0,27.28-12.77,27.28-33.11V17.18h13.09v94.63c0,24.44-15.29,39.42-37.52,39.42-20.65,0-33.74-13.09-33.74-29.64Z"/>
    <path class="cls-1" d="M89.93,0h12.77v119.14h-12.77V0ZM150.47,65.69c0-18.76-3.94-29.48-21.13-29.48-10.88,0-26.65,8.67-26.65,27.28l-1.89.16c0-20.81,17.82-30.43,32.32-30.43,19.71,0,30.11,10.09,30.11,33.27v52.66h-12.77v-53.45Z"/>
    <path class="cls-1" d="M176.2,76.41c0-23.96,18.92-43.2,43.67-43.2s43.83,19.23,43.83,43.2c0,25.54-19.08,43.83-43.83,43.83s-43.67-18.29-43.67-43.83ZM250.46,76.41c0-21.28-9.77-41.31-30.59-41.31s-30.43,20.02-30.43,41.31,9.78,41.94,30.43,41.94,30.59-20.81,30.59-41.94Z"/>
    <rect class="cls-1" x="118.11" width="130.7" height="6.54"/>
    <rect class="cls-1" x="89.93" y="136.64" width="158.87" height="6.54"/>
    <path class="cls-1" d="M71.4.09v6.36c0,.05-.04.09-.09.09h-13.57c-8.47-.21-23.42-1.14-33.15-1.97-6.08-.52-11.96-.99-17.1-1.22-.12,0-.12-.17,0-.18,5.14-.23,11.02-.7,17.1-1.22C34.17,1.15,48.94.22,57.33,0h13.97c.05,0,.09.04.09.09Z"/>
  </g>
</svg>