<?xml version="1.0" encoding="UTF-8"?>
<svg id="Calque_2" data-name="Calque 2" xmlns="http://www.w3.org/2000/svg" viewBox="0 0 758.08 434.71">
  <defs>
    <style>
      .cls-1 {
        fill: #1d1d1b;
      }
    </style>
  </defs>
  <g id="Calque_1-2" data-name="Calque 1">
    <path class="cls-1" d="M0,349.5c0-31.72,17.68-50.31,33.08-60.73h0c-14.96,10.88-27.65,30.36-27.65,60.73,0,44.42,33.99,77.5,83.4,77.5,53.03,0,78.41-36.71,78.41-95.18V49.38h37.62v272.02c0,70.25-43.96,113.31-107.87,113.31-59.37,0-96.99-37.62-96.99-85.21Z"/>
    <path class="cls-1" d="M258.53,0h36.71v342.5h-36.71V0ZM432.57,188.85c0-53.93-11.33-84.75-60.73-84.75-31.27,0-76.6,24.93-76.6,78.41l-5.44.45c0-59.83,51.22-87.47,92.92-87.47,56.65,0,86.57,29.01,86.57,95.63v151.38h-36.71v-153.65Z"/>
    <path class="cls-1" d="M506.53,219.67c0-68.89,54.39-124.18,125.55-124.18s126,55.29,126,124.18c0,73.43-54.84,126-126,126s-125.55-52.57-125.55-126ZM720.01,219.67c0-61.19-28.1-118.75-87.93-118.75s-87.48,57.56-87.48,118.75,28.1,120.56,87.48,120.56,87.93-59.83,87.93-120.56Z"/>
    <rect class="cls-1" x="339.52" width="375.71" height="18.81"/>
    <path class="cls-1" d="M205.24.27v18.28c0,.14-.12.26-.26.26h-39.01c-24.35-.59-67.31-3.29-95.29-5.66-17.47-1.49-34.38-2.84-49.16-3.5-.33-.01-.33-.5,0-.51,14.78-.66,31.69-2.01,49.16-3.5C98.22,3.3,140.69.63,164.82,0h40.17c.14,0,.26.12.26.26Z"/>
    <g>
      <path class="cls-1" d="M248.35,419.75l12.19-26.67h2.78l12.19,26.67h-2.97l-11.2-25.03h1.14l-11.2,25.03h-2.93ZM253.15,412.63l.84-2.29h15.5l.84,2.29h-17.18Z"/>
      <path class="cls-1" d="M286.41,419.75v-26.67h9.98c3.38,0,6.04.81,7.98,2.42,1.94,1.61,2.91,3.85,2.91,6.72,0,1.88-.44,3.5-1.31,4.86-.88,1.36-2.13,2.4-3.75,3.12-1.63.72-3.57,1.09-5.83,1.09h-8.42l1.26-1.29v9.75h-2.82ZM289.23,410.23l-1.26-1.33h8.34c2.67,0,4.69-.58,6.08-1.75,1.38-1.17,2.08-2.81,2.08-4.91s-.69-3.78-2.08-4.95c-1.38-1.17-3.41-1.75-6.08-1.75h-8.34l1.26-1.33v16.04ZM304.62,419.75l-6.86-9.68h3.05l6.9,9.68h-3.09Z"/>
      <path class="cls-1" d="M325.22,419.75v-24.23h-9.37v-2.44h21.56v2.44h-9.37v24.23h-2.82Z"/>
      <path class="cls-1" d="M348.39,419.75v-26.67h2.82v26.67h-2.82Z"/>
      <path class="cls-1" d="M373.72,419.98c-1.98,0-3.88-.32-5.69-.97-1.82-.65-3.22-1.48-4.21-2.5l1.1-2.17c.94.91,2.2,1.68,3.79,2.3,1.59.62,3.26.93,5.01.93s3.04-.21,4.1-.63c1.05-.42,1.83-.98,2.32-1.7s.74-1.5.74-2.36c0-1.04-.3-1.88-.9-2.51-.6-.63-1.38-1.14-2.34-1.5-.97-.37-2.03-.69-3.2-.97-1.17-.28-2.34-.58-3.5-.89-1.17-.32-2.24-.74-3.22-1.28-.98-.53-1.77-1.24-2.36-2.11s-.9-2.03-.9-3.45c0-1.32.35-2.53,1.05-3.64.7-1.1,1.77-1.99,3.22-2.67s3.3-1.01,5.56-1.01c1.5,0,2.98.21,4.46.63,1.47.42,2.74,1,3.81,1.73l-.95,2.25c-1.14-.76-2.36-1.32-3.64-1.68-1.28-.36-2.52-.53-3.71-.53-1.6,0-2.92.22-3.96.65-1.04.43-1.81,1.01-2.3,1.73-.5.72-.74,1.54-.74,2.46,0,1.04.3,1.88.9,2.51.6.64,1.38,1.13,2.36,1.49.98.36,2.05.67,3.22.95,1.17.28,2.33.58,3.49.91,1.16.33,2.22.76,3.2,1.28.98.52,1.77,1.21,2.36,2.08s.9,1.99.9,3.39c0,1.3-.36,2.5-1.07,3.6-.71,1.1-1.8,1.99-3.26,2.67-1.46.67-3.33,1.01-5.62,1.01Z"/>
      <path class="cls-1" d="M401.07,419.75v-24.23h-9.37v-2.44h21.56v2.44h-9.37v24.23h-2.82Z"/>
      <path class="cls-1" d="M424.23,419.75v-26.67h18.29v2.44h-15.47v21.79h16.04v2.44h-18.86ZM426.74,407.41v-2.4h14.09v2.4h-14.09Z"/>
      <path class="cls-1" d="M470.97,407.52v-2.36h9.98v2.36h-9.98Z"/>
      <path class="cls-1" d="M510.89,419.75v-26.67h9.98c2.26,0,4.2.36,5.83,1.09s2.88,1.77,3.75,3.12,1.31,3,1.31,4.93-.44,3.5-1.31,4.86-2.13,2.41-3.75,3.14-3.57,1.1-5.83,1.1h-8.42l1.26-1.33v9.75h-2.82ZM513.71,410.23l-1.26-1.37h8.34c2.67,0,4.69-.58,6.08-1.73,1.38-1.16,2.08-2.79,2.08-4.9s-.69-3.78-2.08-4.95c-1.38-1.17-3.41-1.75-6.08-1.75h-8.34l1.26-1.33v16.04Z"/>
      <path class="cls-1" d="M544.34,419.75v-26.67h18.29v2.44h-15.47v21.79h16.04v2.44h-18.86ZM546.85,407.41v-2.4h14.09v2.4h-14.09Z"/>
      <path class="cls-1" d="M576.3,419.75v-26.67h2.82v26.67h-2.82Z"/>
      <path class="cls-1" d="M594.28,419.75v-26.67h2.32l18.4,23.16h-1.22v-23.16h2.78v26.67h-2.32l-18.36-23.16h1.22v23.16h-2.82Z"/>
      <path class="cls-1" d="M636.91,419.75v-24.23h-9.37v-2.44h21.56v2.44h-9.37v24.23h-2.82Z"/>
      <path class="cls-1" d="M660.07,419.75v-26.67h9.98c3.38,0,6.04.81,7.98,2.42,1.94,1.61,2.92,3.85,2.92,6.72,0,1.88-.44,3.5-1.31,4.86s-2.13,2.4-3.75,3.12c-1.62.72-3.57,1.09-5.83,1.09h-8.42l1.26-1.29v9.75h-2.82ZM662.89,410.23l-1.26-1.33h8.34c2.67,0,4.69-.58,6.08-1.75,1.38-1.17,2.08-2.81,2.08-4.91s-.69-3.78-2.08-4.95c-1.38-1.17-3.41-1.75-6.08-1.75h-8.34l1.26-1.33v16.04ZM678.28,419.75l-6.86-9.68h3.05l6.9,9.68h-3.09Z"/>
      <path class="cls-1" d="M694.09,419.75v-26.67h18.29v2.44h-15.47v21.79h16.04v2.44h-18.86ZM696.6,407.41v-2.4h14.09v2.4h-14.09Z"/>
    </g>
  </g>
</svg>